<mxfile host="app.diagrams.net" modified="2024-06-01T19:50:57.279Z" agent="Mozilla/5.0 (Windows NT 10.0; Win64; x64) AppleWebKit/537.36 (KHTML, like Gecko) Chrome/125.0.0.0 Safari/537.36" etag="wZMQcjOo0ZBm7-QlVFtI" version="24.4.13" type="device">
  <diagram name="Page-1" id="8uFr8Tn8B4q-ZWWi1R2h">
    <mxGraphModel dx="1434" dy="738" grid="1" gridSize="10" guides="1" tooltips="1" connect="1" arrows="1" fold="1" page="1" pageScale="1" pageWidth="827" pageHeight="1169" math="0" shadow="0">
      <root>
        <mxCell id="0" />
        <mxCell id="1" parent="0" />
        <mxCell id="w9VQIExk7xjeDjjsSdcp-2" value="type = pass" style="rounded=0;whiteSpace=wrap;html=1;" vertex="1" parent="1">
          <mxGeometry x="294" y="110" width="120" height="60" as="geometry" />
        </mxCell>
        <mxCell id="w9VQIExk7xjeDjjsSdcp-3" value="other" style="rounded=0;whiteSpace=wrap;html=1;" vertex="1" parent="1">
          <mxGeometry x="294" y="180" width="120" height="60" as="geometry" />
        </mxCell>
        <mxCell id="w9VQIExk7xjeDjjsSdcp-4" value="type = pass" style="rounded=0;whiteSpace=wrap;html=1;" vertex="1" parent="1">
          <mxGeometry x="294" y="250" width="120" height="60" as="geometry" />
        </mxCell>
        <mxCell id="w9VQIExk7xjeDjjsSdcp-5" value="other" style="rounded=0;whiteSpace=wrap;html=1;" vertex="1" parent="1">
          <mxGeometry x="294" y="320" width="120" height="60" as="geometry" />
        </mxCell>
        <mxCell id="w9VQIExk7xjeDjjsSdcp-6" value="" style="sketch=0;outlineConnect=0;fontColor=#232F3E;gradientColor=none;fillColor=#232F3D;strokeColor=none;dashed=0;verticalLabelPosition=bottom;verticalAlign=top;align=center;html=1;fontSize=12;fontStyle=0;aspect=fixed;pointerEvents=1;shape=mxgraph.aws4.json_script;" vertex="1" parent="1">
          <mxGeometry x="30" y="276" width="57" height="78" as="geometry" />
        </mxCell>
        <mxCell id="w9VQIExk7xjeDjjsSdcp-7" value="" style="endArrow=none;dashed=1;html=1;dashPattern=1 3;strokeWidth=2;rounded=0;" edge="1" parent="1">
          <mxGeometry width="50" height="50" relative="1" as="geometry">
            <mxPoint x="354" y="440" as="sourcePoint" />
            <mxPoint x="353.5" y="390" as="targetPoint" />
          </mxGeometry>
        </mxCell>
        <mxCell id="w9VQIExk7xjeDjjsSdcp-8" value="type = pass" style="rounded=0;whiteSpace=wrap;html=1;" vertex="1" parent="1">
          <mxGeometry x="294" y="450" width="120" height="60" as="geometry" />
        </mxCell>
        <mxCell id="w9VQIExk7xjeDjjsSdcp-11" value="" style="labelPosition=right;align=left;strokeWidth=1;shape=mxgraph.mockup.markup.curlyBrace;html=1;shadow=0;dashed=0;strokeColor=#999999;direction=north;" vertex="1" parent="1">
          <mxGeometry x="240" y="110" width="20" height="410" as="geometry" />
        </mxCell>
        <mxCell id="w9VQIExk7xjeDjjsSdcp-12" value="groupby(team)" style="text;html=1;align=center;verticalAlign=middle;whiteSpace=wrap;rounded=0;" vertex="1" parent="1">
          <mxGeometry x="150" y="300" width="60" height="30" as="geometry" />
        </mxCell>
        <mxCell id="w9VQIExk7xjeDjjsSdcp-13" value="" style="edgeStyle=orthogonalEdgeStyle;rounded=0;orthogonalLoop=1;jettySize=auto;html=1;" edge="1" parent="1" source="w9VQIExk7xjeDjjsSdcp-6">
          <mxGeometry relative="1" as="geometry">
            <mxPoint x="130" y="315" as="targetPoint" />
          </mxGeometry>
        </mxCell>
        <mxCell id="w9VQIExk7xjeDjjsSdcp-14" value="Pass_feature" style="text;html=1;align=center;verticalAlign=middle;whiteSpace=wrap;rounded=0;" vertex="1" parent="1">
          <mxGeometry x="450" y="60" width="60" height="30" as="geometry" />
        </mxCell>
        <mxCell id="w9VQIExk7xjeDjjsSdcp-15" value="1" style="text;html=1;align=center;verticalAlign=middle;whiteSpace=wrap;rounded=0;" vertex="1" parent="1">
          <mxGeometry x="450" y="125" width="60" height="30" as="geometry" />
        </mxCell>
        <mxCell id="w9VQIExk7xjeDjjsSdcp-16" value="" style="edgeStyle=orthogonalEdgeStyle;rounded=0;orthogonalLoop=1;jettySize=auto;html=1;" edge="1" parent="1" source="w9VQIExk7xjeDjjsSdcp-2" target="w9VQIExk7xjeDjjsSdcp-15">
          <mxGeometry relative="1" as="geometry" />
        </mxCell>
        <mxCell id="w9VQIExk7xjeDjjsSdcp-17" value="1" style="text;html=1;align=center;verticalAlign=middle;whiteSpace=wrap;rounded=0;" vertex="1" parent="1">
          <mxGeometry x="450" y="265" width="60" height="30" as="geometry" />
        </mxCell>
        <mxCell id="w9VQIExk7xjeDjjsSdcp-18" value="0" style="text;html=1;align=center;verticalAlign=middle;whiteSpace=wrap;rounded=0;" vertex="1" parent="1">
          <mxGeometry x="450" y="195" width="60" height="30" as="geometry" />
        </mxCell>
        <mxCell id="w9VQIExk7xjeDjjsSdcp-19" value="0" style="text;html=1;align=center;verticalAlign=middle;whiteSpace=wrap;rounded=0;" vertex="1" parent="1">
          <mxGeometry x="450" y="335" width="60" height="30" as="geometry" />
        </mxCell>
        <mxCell id="w9VQIExk7xjeDjjsSdcp-20" value="1" style="text;html=1;align=center;verticalAlign=middle;whiteSpace=wrap;rounded=0;" vertex="1" parent="1">
          <mxGeometry x="450" y="465" width="60" height="30" as="geometry" />
        </mxCell>
        <mxCell id="w9VQIExk7xjeDjjsSdcp-22" value="" style="endArrow=classic;html=1;rounded=0;exitX=1;exitY=0.5;exitDx=0;exitDy=0;entryX=0;entryY=0.5;entryDx=0;entryDy=0;" edge="1" parent="1" source="w9VQIExk7xjeDjjsSdcp-3" target="w9VQIExk7xjeDjjsSdcp-18">
          <mxGeometry width="50" height="50" relative="1" as="geometry">
            <mxPoint x="600" y="290" as="sourcePoint" />
            <mxPoint x="650" y="240" as="targetPoint" />
          </mxGeometry>
        </mxCell>
        <mxCell id="w9VQIExk7xjeDjjsSdcp-23" value="" style="endArrow=classic;html=1;rounded=0;exitX=1;exitY=0.5;exitDx=0;exitDy=0;entryX=0;entryY=0.5;entryDx=0;entryDy=0;" edge="1" parent="1" source="w9VQIExk7xjeDjjsSdcp-4" target="w9VQIExk7xjeDjjsSdcp-17">
          <mxGeometry width="50" height="50" relative="1" as="geometry">
            <mxPoint x="610" y="350" as="sourcePoint" />
            <mxPoint x="660" y="300" as="targetPoint" />
          </mxGeometry>
        </mxCell>
        <mxCell id="w9VQIExk7xjeDjjsSdcp-25" value="" style="endArrow=classic;html=1;rounded=0;exitX=1;exitY=0.5;exitDx=0;exitDy=0;" edge="1" parent="1" source="w9VQIExk7xjeDjjsSdcp-5">
          <mxGeometry width="50" height="50" relative="1" as="geometry">
            <mxPoint x="630" y="410" as="sourcePoint" />
            <mxPoint x="450" y="350" as="targetPoint" />
          </mxGeometry>
        </mxCell>
        <mxCell id="w9VQIExk7xjeDjjsSdcp-26" value="" style="endArrow=classic;html=1;rounded=0;exitX=1;exitY=0.5;exitDx=0;exitDy=0;" edge="1" parent="1" source="w9VQIExk7xjeDjjsSdcp-8">
          <mxGeometry width="50" height="50" relative="1" as="geometry">
            <mxPoint x="580" y="480" as="sourcePoint" />
            <mxPoint x="460" y="480" as="targetPoint" />
          </mxGeometry>
        </mxCell>
        <mxCell id="w9VQIExk7xjeDjjsSdcp-27" value="" style="labelPosition=right;align=left;strokeWidth=1;shape=mxgraph.mockup.markup.curlyBrace;html=1;shadow=0;dashed=0;strokeColor=#999999;direction=north;rotation=-180;" vertex="1" parent="1">
          <mxGeometry x="520" y="110" width="20" height="410" as="geometry" />
        </mxCell>
        <mxCell id="w9VQIExk7xjeDjjsSdcp-28" value="NumberOfPasses_Team1 (sum&lt;span style=&quot;background-color: initial;&quot;&gt;)&lt;/span&gt;" style="text;html=1;align=center;verticalAlign=middle;whiteSpace=wrap;rounded=0;" vertex="1" parent="1">
          <mxGeometry x="540" y="260" width="190" height="30" as="geometry" />
        </mxCell>
        <mxCell id="w9VQIExk7xjeDjjsSdcp-29" value="450" style="text;html=1;align=center;verticalAlign=middle;whiteSpace=wrap;rounded=0;" vertex="1" parent="1">
          <mxGeometry x="605" y="300" width="60" height="30" as="geometry" />
        </mxCell>
        <mxCell id="w9VQIExk7xjeDjjsSdcp-30" value="VectorAssembler()" style="rounded=0;whiteSpace=wrap;html=1;fillColor=#ffe6cc;strokeColor=#d79b00;" vertex="1" parent="1">
          <mxGeometry x="123" y="680" width="106" height="60" as="geometry" />
        </mxCell>
        <mxCell id="w9VQIExk7xjeDjjsSdcp-32" value="LabelIndexer" style="rounded=0;whiteSpace=wrap;html=1;fillColor=#ffe6cc;strokeColor=#d79b00;" vertex="1" parent="1">
          <mxGeometry x="276" y="680" width="120" height="60" as="geometry" />
        </mxCell>
        <mxCell id="w9VQIExk7xjeDjjsSdcp-33" value="Selection des colonnes" style="text;html=1;align=center;verticalAlign=middle;whiteSpace=wrap;rounded=0;" vertex="1" parent="1">
          <mxGeometry x="126" y="650" width="100" height="30" as="geometry" />
        </mxCell>
        <mxCell id="w9VQIExk7xjeDjjsSdcp-34" value="Selection des colonnes" style="text;html=1;align=center;verticalAlign=middle;whiteSpace=wrap;rounded=0;" vertex="1" parent="1">
          <mxGeometry x="286" y="650" width="100" height="30" as="geometry" />
        </mxCell>
        <mxCell id="w9VQIExk7xjeDjjsSdcp-35" value="TrainTestSplit" style="rounded=0;whiteSpace=wrap;html=1;fillColor=#ffe6cc;strokeColor=#d79b00;" vertex="1" parent="1">
          <mxGeometry x="420" y="680" width="120" height="60" as="geometry" />
        </mxCell>
        <mxCell id="w9VQIExk7xjeDjjsSdcp-36" value="LogisticRegression" style="rounded=0;whiteSpace=wrap;html=1;fillColor=#dae8fc;strokeColor=#6c8ebf;" vertex="1" parent="1">
          <mxGeometry x="540" y="840" width="160" height="60" as="geometry" />
        </mxCell>
        <mxCell id="w9VQIExk7xjeDjjsSdcp-37" value="RandomForestClassifier" style="rounded=0;whiteSpace=wrap;html=1;fillColor=#dae8fc;strokeColor=#6c8ebf;" vertex="1" parent="1">
          <mxGeometry x="540" y="770" width="160" height="60" as="geometry" />
        </mxCell>
        <mxCell id="w9VQIExk7xjeDjjsSdcp-38" value="Modèles" style="text;html=1;align=center;verticalAlign=middle;whiteSpace=wrap;rounded=0;" vertex="1" parent="1">
          <mxGeometry x="600" y="900" width="60" height="30" as="geometry" />
        </mxCell>
        <mxCell id="w9VQIExk7xjeDjjsSdcp-39" value="ParamGrid" style="rounded=0;whiteSpace=wrap;html=1;fillColor=#e1d5e7;strokeColor=#9673a6;" vertex="1" parent="1">
          <mxGeometry x="396" y="800" width="86" height="60" as="geometry" />
        </mxCell>
        <mxCell id="w9VQIExk7xjeDjjsSdcp-40" value="Evaluator" style="rounded=0;whiteSpace=wrap;html=1;fillColor=#e1d5e7;strokeColor=#9673a6;" vertex="1" parent="1">
          <mxGeometry x="286" y="800" width="80" height="60" as="geometry" />
        </mxCell>
        <mxCell id="w9VQIExk7xjeDjjsSdcp-41" value="CrossValidation" style="rounded=0;whiteSpace=wrap;html=1;fillColor=#e1d5e7;strokeColor=#9673a6;" vertex="1" parent="1">
          <mxGeometry x="121" y="800" width="110" height="60" as="geometry" />
        </mxCell>
        <mxCell id="w9VQIExk7xjeDjjsSdcp-42" value="Fit" style="rounded=0;whiteSpace=wrap;html=1;fillColor=#f8cecc;strokeColor=#b85450;" vertex="1" parent="1">
          <mxGeometry x="123" y="910" width="107" height="60" as="geometry" />
        </mxCell>
        <mxCell id="w9VQIExk7xjeDjjsSdcp-44" value="Results on TestSet" style="rounded=0;whiteSpace=wrap;html=1;fillColor=#d5e8d4;strokeColor=#82b366;" vertex="1" parent="1">
          <mxGeometry x="276" y="910" width="134" height="60" as="geometry" />
        </mxCell>
        <mxCell id="w9VQIExk7xjeDjjsSdcp-45" value="" style="endArrow=classic;html=1;rounded=0;exitX=1;exitY=0.5;exitDx=0;exitDy=0;entryX=0;entryY=0.5;entryDx=0;entryDy=0;" edge="1" parent="1" source="w9VQIExk7xjeDjjsSdcp-30" target="w9VQIExk7xjeDjjsSdcp-32">
          <mxGeometry width="50" height="50" relative="1" as="geometry">
            <mxPoint x="-120" y="790" as="sourcePoint" />
            <mxPoint x="-70" y="740" as="targetPoint" />
          </mxGeometry>
        </mxCell>
        <mxCell id="w9VQIExk7xjeDjjsSdcp-46" value="" style="endArrow=classic;html=1;rounded=0;exitX=1;exitY=0.5;exitDx=0;exitDy=0;entryX=0;entryY=0.5;entryDx=0;entryDy=0;" edge="1" parent="1" source="w9VQIExk7xjeDjjsSdcp-32" target="w9VQIExk7xjeDjjsSdcp-35">
          <mxGeometry width="50" height="50" relative="1" as="geometry">
            <mxPoint x="239" y="720" as="sourcePoint" />
            <mxPoint x="430" y="650" as="targetPoint" />
          </mxGeometry>
        </mxCell>
        <mxCell id="w9VQIExk7xjeDjjsSdcp-47" value="" style="endArrow=classic;html=1;rounded=0;exitX=1;exitY=0.5;exitDx=0;exitDy=0;entryX=0.5;entryY=0;entryDx=0;entryDy=0;" edge="1" parent="1" source="w9VQIExk7xjeDjjsSdcp-35" target="w9VQIExk7xjeDjjsSdcp-37">
          <mxGeometry width="50" height="50" relative="1" as="geometry">
            <mxPoint x="600" y="740" as="sourcePoint" />
            <mxPoint x="650" y="690" as="targetPoint" />
            <Array as="points">
              <mxPoint x="620" y="710" />
            </Array>
          </mxGeometry>
        </mxCell>
        <mxCell id="w9VQIExk7xjeDjjsSdcp-48" value="" style="endArrow=classic;html=1;rounded=0;exitX=1;exitY=0.5;exitDx=0;exitDy=0;entryX=1;entryY=0.5;entryDx=0;entryDy=0;" edge="1" parent="1" source="w9VQIExk7xjeDjjsSdcp-35" target="w9VQIExk7xjeDjjsSdcp-36">
          <mxGeometry width="50" height="50" relative="1" as="geometry">
            <mxPoint x="550" y="720" as="sourcePoint" />
            <mxPoint x="630" y="780" as="targetPoint" />
            <Array as="points">
              <mxPoint x="720" y="710" />
              <mxPoint x="720" y="870" />
            </Array>
          </mxGeometry>
        </mxCell>
        <mxCell id="w9VQIExk7xjeDjjsSdcp-49" value="" style="endArrow=classic;html=1;rounded=0;exitX=0;exitY=0.5;exitDx=0;exitDy=0;entryX=1;entryY=0.5;entryDx=0;entryDy=0;" edge="1" parent="1" source="w9VQIExk7xjeDjjsSdcp-37" target="w9VQIExk7xjeDjjsSdcp-39">
          <mxGeometry width="50" height="50" relative="1" as="geometry">
            <mxPoint x="50" y="880" as="sourcePoint" />
            <mxPoint x="100" y="830" as="targetPoint" />
          </mxGeometry>
        </mxCell>
        <mxCell id="w9VQIExk7xjeDjjsSdcp-50" value="" style="endArrow=classic;html=1;rounded=0;entryX=1;entryY=0.5;entryDx=0;entryDy=0;exitX=0;exitY=0.5;exitDx=0;exitDy=0;" edge="1" parent="1" source="w9VQIExk7xjeDjjsSdcp-36" target="w9VQIExk7xjeDjjsSdcp-39">
          <mxGeometry width="50" height="50" relative="1" as="geometry">
            <mxPoint x="520" y="920" as="sourcePoint" />
            <mxPoint x="492" y="840" as="targetPoint" />
          </mxGeometry>
        </mxCell>
        <mxCell id="w9VQIExk7xjeDjjsSdcp-51" value="" style="endArrow=classic;html=1;rounded=0;exitX=0;exitY=0.5;exitDx=0;exitDy=0;entryX=1;entryY=0.5;entryDx=0;entryDy=0;" edge="1" parent="1" source="w9VQIExk7xjeDjjsSdcp-39" target="w9VQIExk7xjeDjjsSdcp-40">
          <mxGeometry width="50" height="50" relative="1" as="geometry">
            <mxPoint x="330" y="830" as="sourcePoint" />
            <mxPoint x="-30" y="810" as="targetPoint" />
          </mxGeometry>
        </mxCell>
        <mxCell id="w9VQIExk7xjeDjjsSdcp-52" value="" style="endArrow=classic;html=1;rounded=0;exitX=0;exitY=0.5;exitDx=0;exitDy=0;entryX=1;entryY=0.5;entryDx=0;entryDy=0;" edge="1" parent="1" source="w9VQIExk7xjeDjjsSdcp-40" target="w9VQIExk7xjeDjjsSdcp-41">
          <mxGeometry width="50" height="50" relative="1" as="geometry">
            <mxPoint x="-20" y="830" as="sourcePoint" />
            <mxPoint x="30" y="780" as="targetPoint" />
          </mxGeometry>
        </mxCell>
        <mxCell id="w9VQIExk7xjeDjjsSdcp-53" value="" style="endArrow=classic;html=1;rounded=0;exitX=0.5;exitY=1;exitDx=0;exitDy=0;entryX=0.5;entryY=0;entryDx=0;entryDy=0;" edge="1" parent="1" source="w9VQIExk7xjeDjjsSdcp-41" target="w9VQIExk7xjeDjjsSdcp-42">
          <mxGeometry width="50" height="50" relative="1" as="geometry">
            <mxPoint x="30" y="910" as="sourcePoint" />
            <mxPoint x="80" y="860" as="targetPoint" />
          </mxGeometry>
        </mxCell>
        <mxCell id="w9VQIExk7xjeDjjsSdcp-54" value="" style="endArrow=classic;html=1;rounded=0;exitX=1;exitY=0.5;exitDx=0;exitDy=0;entryX=0;entryY=0.5;entryDx=0;entryDy=0;" edge="1" parent="1" source="w9VQIExk7xjeDjjsSdcp-42" target="w9VQIExk7xjeDjjsSdcp-44">
          <mxGeometry width="50" height="50" relative="1" as="geometry">
            <mxPoint x="30" y="960" as="sourcePoint" />
            <mxPoint x="80" y="910" as="targetPoint" />
          </mxGeometry>
        </mxCell>
      </root>
    </mxGraphModel>
  </diagram>
</mxfile>
